<?xml version="1.0" encoding="UTF-8" standalone="no"?>
<svg
   xmlns:dc="http://purl.org/dc/elements/1.1/"
   xmlns:cc="http://creativecommons.org/ns#"
   xmlns:rdf="http://www.w3.org/1999/02/22-rdf-syntax-ns#"
   xmlns:svg="http://www.w3.org/2000/svg"
   xmlns="http://www.w3.org/2000/svg"
   xmlns:sodipodi="http://sodipodi.sourceforge.net/DTD/sodipodi-0.dtd"
   xmlns:inkscape="http://www.inkscape.org/namespaces/inkscape"
   version="1.1"
   id="svg845"
   xml:space="preserve"
   width="851"
   height="315"
   viewBox="0 0 850.99999 315"
   sodipodi:docname="logo_48x18_vectoriel_noir_facebook_cover.svg"
   inkscape:export-filename="C:\Gibson\Pro\workspace\enjoy_diving\other\facebook\couverture.png"
   inkscape:export-xdpi="96"
   inkscape:export-ydpi="96"
   inkscape:version="1.0 (4035a4fb49, 2020-05-01)"><metadata
     id="metadata851"><rdf:RDF><cc:Work
         rdf:about=""><dc:format>image/svg+xml</dc:format><dc:type
           rdf:resource="http://purl.org/dc/dcmitype/StillImage" /><dc:title /></cc:Work></rdf:RDF></metadata><defs
     id="defs849"><clipPath
       clipPathUnits="userSpaceOnUse"
       id="clipPath861"><path
         d="M 0,61.508 H 102.133 V 0 H 0 Z"
         id="path859" /></clipPath></defs><sodipodi:namedview
     inkscape:document-rotation="0"
     pagecolor="#ffffff"
     bordercolor="#666666"
     borderopacity="1"
     objecttolerance="10"
     gridtolerance="10"
     guidetolerance="10"
     inkscape:pageopacity="0"
     inkscape:pageshadow="2"
     inkscape:window-width="1620"
     inkscape:window-height="1018"
     id="namedview847"
     showgrid="false"
     inkscape:zoom="0.81156082"
     inkscape:cx="354.60251"
     inkscape:cy="265.25013"
     inkscape:window-x="-6"
     inkscape:window-y="-6"
     inkscape:window-maximized="1"
     inkscape:current-layer="layer1"
     showguides="true" /><g
     inkscape:groupmode="layer"
     id="layer1"
     inkscape:label="logo_48x18_vectoriel_noir 1"><rect
       style="fill:#3f51b5;fill-opacity:1;stroke-width:44.4229"
       id="rect1457"
       width="879.26172"
       height="372.69534"
       x="-9.4940701"
       y="-14.158502" /></g><g
     id="g853"
     inkscape:groupmode="layer"
     inkscape:label="logo_48x18_vectoriel_noir"
     transform="matrix(1.3333333,0,0,-1.3333333,0,82.0104)"><g
       id="g855"
       style="fill:#ffffff"
       transform="matrix(4.6244621,0,0,4.5567957,81.95577,-196.67989)"><g
         id="g857"
         clip-path="url(#clipPath861)"
         style="fill:#ffffff"><g
           id="g863"
           transform="translate(45.4932,21.7988)"
           style="fill:#ffffff"><path
             d="m 0,0 c 0.002,0.01 0.006,-0.149 -0.033,-0.51 -0.02,-0.167 -0.065,-0.326 -0.106,-0.531 -0.035,-0.205 -0.109,-0.415 -0.183,-0.646 -0.081,-0.23 -0.143,-0.49 -0.259,-0.737 C -0.687,-2.676 -0.8,-2.94 -0.916,-3.215 -1.022,-3.494 -1.18,-3.756 -1.317,-4.033 -1.459,-4.308 -1.604,-4.586 -1.748,-4.864 -2.056,-5.408 -2.391,-5.936 -2.69,-6.436 -2.979,-6.942 -3.314,-7.374 -3.571,-7.761 -4.1,-8.525 -4.452,-9.035 -4.452,-9.035 c 0,0 0.29,0.547 0.724,1.367 0.21,0.413 0.49,0.876 0.716,1.409 0.237,0.528 0.504,1.081 0.741,1.646 0.108,0.286 0.216,0.572 0.322,0.853 0.101,0.282 0.223,0.553 0.292,0.828 0.079,0.272 0.155,0.534 0.227,0.783 0.083,0.247 0.109,0.485 0.158,0.701 0.043,0.217 0.088,0.415 0.095,0.586 0.013,0.168 0.038,0.331 0.036,0.432 -0.002,0.099 -0.003,0.177 -0.003,0.23 -0.008,0.071 -0.012,0.11 -0.012,0.11 z"
             style="fill:#ffffff;fill-opacity:1;fill-rule:nonzero;stroke:none"
             id="path865" /></g><g
           id="g867"
           transform="translate(64.9678,22.5391)"
           style="fill:#ffffff"><path
             d="m 0,0 c 0,0 -0.012,-0.123 -0.032,-0.337 -0.016,-0.212 -0.016,-0.504 -0.029,-0.862 -0.038,-0.711 0.048,-1.702 0.071,-2.679 0.02,-0.491 0.085,-0.978 0.122,-1.438 0.044,-0.46 0.084,-0.889 0.119,-1.256 0.069,-0.738 0.115,-1.229 0.115,-1.229 0,0 -0.1,0.483 -0.251,1.207 -0.075,0.363 -0.164,0.785 -0.258,1.24 -0.088,0.454 -0.208,0.936 -0.283,1.425 -0.134,0.986 -0.329,1.95 -0.375,2.718 -0.029,0.38 -0.061,0.703 -0.069,0.923 -0.004,0.216 -0.005,0.339 -0.005,0.339 z"
             style="fill:#ffffff;fill-opacity:1;fill-rule:nonzero;stroke:none"
             id="path869" /></g><g
           id="g871"
           transform="translate(68.4785,29.4746)"
           style="fill:#ffffff"><path
             d="m 0,0 c -0.144,-0.062 -0.29,-0.09 -0.446,-0.083 -0.111,0.006 -0.226,0.021 -0.314,-0.06 -0.017,-0.014 -0.035,-0.019 -0.043,-0.031 -0.032,-0.046 -0.06,-0.094 -0.09,-0.14 0.051,-0.012 0.103,-0.036 0.155,-0.034 0.2,0.006 0.387,0.069 0.563,0.162 0.101,0.052 0.199,0.112 0.293,0.176 C 0.141,0.005 0.146,0.047 0.161,0.077 0.133,0.068 0.102,0.063 0.075,0.05 0.05,0.037 0.026,0.012 0,0"
             style="fill:#ffffff;fill-opacity:1;fill-rule:nonzero;stroke:none"
             id="path873" /></g><g
           id="g875"
           transform="translate(67.5234,28.9297)"
           style="fill:#ffffff"><path
             d="m 0,0 c -0.091,0.054 -0.182,0.038 -0.242,-0.039 -0.122,-0.145 -0.24,-0.296 -0.344,-0.456 -0.076,-0.115 -0.038,-0.226 0.077,-0.302 0.139,-0.092 0.385,-0.04 0.521,0.109 0.187,0.202 0.374,0.403 0.562,0.604 0.015,0.017 0.024,0.037 0.037,0.059 C 0.396,-0.08 0.196,-0.119 0,0"
             style="fill:#ffffff;fill-opacity:1;fill-rule:nonzero;stroke:none"
             id="path877" /></g><g
           id="g879"
           transform="translate(73.7041,37.1406)"
           style="fill:#ffffff"><path
             d="m 0,0 c -0.233,-0.35 -0.41,-0.729 -0.584,-1.11 -0.121,-0.269 -0.213,-0.55 -0.334,-0.818 -0.129,-0.284 -0.331,-0.519 -0.539,-0.749 -0.172,-0.192 -0.368,-0.371 -0.439,-0.632 -0.021,-0.064 -0.033,-0.132 -0.031,-0.198 0.001,-0.257 -0.063,-0.492 -0.197,-0.709 -0.077,-0.125 -0.06,-0.201 0.063,-0.293 0.077,-0.057 0.109,-0.128 0.068,-0.218 -0.048,-0.109 -0.093,-0.221 -0.155,-0.321 -0.057,-0.09 -0.14,-0.093 -0.224,-0.031 -0.023,0.017 -0.045,0.034 -0.068,0.048 -0.072,0.044 -0.133,0.047 -0.183,-0.028 -0.053,-0.075 -0.04,-0.157 0.029,-0.214 0.216,-0.174 0.216,-0.174 0.206,-0.452 -0.005,-0.095 -0.008,-0.191 -0.009,-0.285 -0.002,-0.079 0.022,-0.141 0.099,-0.184 0.126,-0.074 0.143,-0.15 0.066,-0.275 -0.111,-0.179 -0.224,-0.357 -0.338,-0.533 -0.077,-0.119 -0.071,-0.194 0.04,-0.287 0.112,-0.096 0.126,-0.215 0.036,-0.341 -0.111,-0.162 -0.265,-0.25 -0.457,-0.233 -0.084,0.009 -0.17,0.066 -0.243,0.116 -0.116,0.08 -0.202,0.086 -0.311,-0.001 -0.028,-0.022 -0.058,-0.046 -0.088,-0.07 -0.082,-0.071 -0.17,-0.071 -0.263,-0.016 -0.106,0.057 -0.161,0.038 -0.213,-0.066 -0.019,-0.037 -0.036,-0.074 -0.053,-0.11 -0.054,-0.114 -0.133,-0.122 -0.208,-0.021 -0.05,0.061 -0.091,0.127 -0.141,0.187 -0.104,0.121 -0.243,0.125 -0.336,-0.008 C -4.89,-7.976 -5.014,-8.044 -5.14,-8.084 -5.275,-8.126 -5.384,-8.204 -5.476,-8.301 -5.655,-8.489 -5.827,-8.689 -5.98,-8.902 -6.079,-9.042 -6.207,-9.1 -6.362,-9.115 -6.52,-9.134 -6.625,-9.19 -6.653,-9.379 c -0.034,-0.214 -0.251,-0.354 -0.496,-0.329 -0.109,0.011 -0.216,0.022 -0.289,0.121 -0.041,0.055 -0.049,0.112 -0.027,0.174 0.011,0.03 0.024,0.057 0.035,0.087 0.051,0.113 0.044,0.169 -0.032,0.221 -0.095,0.061 -0.225,0.054 -0.283,-0.035 -0.06,-0.089 -0.136,-0.104 -0.216,-0.066 -0.156,0.072 -0.311,0.151 -0.455,0.244 -0.036,0.023 -0.052,0.11 -0.044,0.164 0.027,0.169 0.009,0.216 -0.143,0.295 -0.116,0.062 -0.174,0.161 -0.192,0.29 -0.036,0.271 0.047,0.521 0.146,0.765 0.063,0.149 0.139,0.295 0.211,0.439 0.079,0.154 0.196,0.242 0.377,0.234 0.157,-0.007 0.307,0.027 0.45,0.093 0.05,0.025 0.115,0.05 0.091,0.13 -0.02,0.067 -0.114,0.12 -0.188,0.101 -0.051,-0.011 -0.097,-0.04 -0.146,-0.058 -0.115,-0.041 -0.21,-0.003 -0.296,0.073 -0.063,0.056 -0.078,0.122 -0.056,0.201 0.05,0.174 0.226,0.235 0.372,0.126 0.048,-0.036 0.085,-0.109 0.165,-0.073 0.079,0.038 0.095,0.119 0.107,0.195 0.018,0.13 -0.022,0.248 -0.1,0.347 -0.189,0.234 -0.234,0.502 -0.177,0.78 0.036,0.176 0.117,0.342 0.186,0.511 0.304,0.756 0.61,1.513 0.923,2.266 0.256,0.617 0.523,1.229 0.786,1.844 0.054,0.131 0.114,0.154 0.257,0.122 0.356,-0.076 0.705,-0.174 1.037,-0.327 0.08,-0.037 0.157,-0.086 0.228,-0.137 0.079,-0.056 0.11,-0.134 0.068,-0.228 -0.114,-0.243 -0.227,-0.484 -0.335,-0.73 -0.157,-0.364 -0.31,-0.731 -0.465,-1.097 -0.025,-0.063 -0.053,-0.124 -0.073,-0.188 -0.033,-0.116 0.023,-0.19 0.141,-0.212 0.105,-0.018 0.227,-0.022 0.311,-0.079 0.132,-0.089 0.242,-0.216 0.361,-0.328 0.054,-0.053 0.109,-0.108 0.164,-0.163 0.056,-0.052 0.103,-0.024 0.126,0.028 0.043,0.089 0.047,0.185 -0.055,0.252 -0.158,0.106 -0.211,0.261 -0.159,0.426 0.044,0.15 0.122,0.184 0.261,0.112 0.099,-0.053 0.139,-0.039 0.189,0.06 0.105,0.208 0.269,0.37 0.438,0.524 0.033,0.031 0.076,0.059 0.12,0.068 0.156,0.035 0.263,0.121 0.351,0.252 0.067,0.102 0.162,0.186 0.249,0.272 0.101,0.099 0.181,0.21 0.224,0.346 0.056,0.174 0.157,0.308 0.318,0.394 0.157,0.084 0.276,0.208 0.366,0.361 0.086,0.142 0.086,0.292 0.059,0.453 C -1.8,0.151 -1.819,0.363 -1.84,0.575 -1.854,0.731 -1.9,0.877 -2.018,1.047 -2.078,1.119 -2.173,1.227 -2.26,1.338 -2.433,1.553 -2.504,1.808 -2.563,2.07 -2.646,2.426 -2.737,2.782 -2.826,3.138 -2.873,3.317 -3.008,3.435 -3.141,3.543 -3.269,3.647 -3.417,3.728 -3.56,3.809 -3.712,3.896 -3.744,4.01 -3.643,4.211 c 0.105,0.215 0.217,0.428 0.328,0.64 0.123,0.232 0.165,0.487 0.209,0.74 0.107,0.607 0.218,1.214 0.319,1.822 0.093,0.557 0.167,1.116 0.26,1.673 0.052,0.331 0.13,0.659 0.184,0.988 0.023,0.13 0.003,0.265 0.029,0.394 0.025,0.138 0.079,0.276 0.126,0.41 0.026,0.08 0.089,0.102 0.17,0.09 0.122,-0.017 0.243,-0.033 0.366,-0.046 0.067,-0.007 0.098,-0.047 0.084,-0.106 C -1.602,10.686 -1.63,10.553 -1.682,10.43 -1.838,10.062 -1.926,9.675 -1.986,9.284 -2.033,8.997 -2.043,8.703 -2.061,8.412 -2.103,7.688 -2.203,6.973 -2.357,6.264 -2.423,5.962 -2.437,5.662 -2.399,5.354 c 0.037,-0.307 0.05,-0.614 0.078,-0.922 0.015,-0.169 0.062,-0.328 0.14,-0.485 0.105,-0.213 0.188,-0.438 0.272,-0.66 0.058,-0.147 0.1,-0.3 0.156,-0.448 0.041,-0.115 0.132,-0.158 0.231,-0.124 0.287,0.1 0.556,-0.065 0.557,-0.367 0.001,-0.301 0.14,-0.496 0.385,-0.636 0.174,-0.1 0.24,-0.275 0.1,-0.438 C -0.562,1.179 -0.553,1.048 -0.469,0.946 -0.336,0.787 -0.196,0.634 -0.056,0.48 0.106,0.305 0.154,0.228 0,0 m -9.104,-2.686 c -0.661,0 -1.198,0.537 -1.198,1.198 0,0.661 0.537,1.196 1.198,1.196 0.66,0 1.197,-0.535 1.197,-1.196 0,-0.661 -0.537,-1.198 -1.197,-1.198 m -2.517,4.829 c -1.005,0 -1.822,0.816 -1.822,1.823 0,1.007 0.817,1.822 1.822,1.822 1.006,0 1.823,-0.815 1.823,-1.822 0,-1.007 -0.817,-1.823 -1.823,-1.823 m 6.235,12.563 c -0.781,0 -1.542,-0.082 -2.277,-0.238 0.306,-0.565 0.479,-1.213 0.479,-1.9 0,-2.202 -1.785,-3.987 -3.988,-3.987 -1.281,0 -2.418,0.607 -3.147,1.545 -1.305,-1.809 -2.076,-4.028 -2.076,-6.429 0,-6.08 11.009,-22.646 11.009,-22.646 0,0 11.008,16.566 11.008,22.646 0,6.08 -4.929,11.009 -11.008,11.009"
             style="fill:#ffffff;fill-opacity:1;fill-rule:nonzero;stroke:none"
             id="path881" /></g><g
           id="g883"
           transform="translate(62.46,46.748)"
           style="fill:#ffffff"><path
             d="m 0,0 c 1.665,0 3.018,1.352 3.018,3.018 0,0.521 -0.133,1.01 -0.365,1.438 C 2.142,5.396 1.146,6.036 0,6.036 -1.667,6.036 -3.018,4.685 -3.018,3.018 -3.018,2.321 -2.78,1.682 -2.382,1.17 -1.831,0.459 -0.97,0 0,0"
             style="fill:#ffffff;fill-opacity:1;fill-rule:nonzero;stroke:none"
             id="path885" /></g><g
           id="g887"
           transform="translate(39.2148,12.1895)"
           style="fill:#ffffff"><path
             d="m 0,0 c 0,0 -10.571,-1.471 -25.111,-0.718 0,0 9.009,4.748 11.266,7.021 0.27,0.269 1.326,0.199 1.353,-0.307 0.017,-0.323 -0.753,-0.778 -0.833,-1.111 -0.056,-0.237 0.138,-0.479 0.13,-0.659 -0.016,-0.323 -0.138,-0.339 -0.312,-0.63 -0.116,-0.193 -0.722,-1.138 -0.666,-1.294 0.232,-0.641 2.636,-0.274 3.121,-0.187 0.486,0.086 0.928,0.443 1.431,0.449 0.373,0.005 1.269,-0.289 0.708,-0.707 0.795,-1.048 3.354,-0.473 4.488,-0.324 0.565,0.075 0.98,0.172 1.497,0.368 0.363,0.14 1.285,0.528 1.692,0.279 0,0 1.643,-0.894 3.95,-0.391 C 5.021,2.29 4.77,0.986 5.22,0.635 c 0.452,-0.35 1.254,-0.852 2.557,-1.202 1.304,-0.352 2.814,0.32 3.588,0.486 0,0 7.653,2.132 8.901,1.549 0.708,-0.329 1.122,-0.184 1.559,0.467 0.282,0.42 0.428,0.838 0.585,1.274 0.16,0.44 0.193,0.654 0.647,0.905 0.376,0.208 0.64,0.009 0.796,0.571 0.405,-0.239 0.291,-0.995 0.519,-1.412 0.318,-0.577 0.859,-0.791 1.413,-1.047 0.988,-0.456 2.224,-0.446 3.041,-1.08 0.987,-0.764 1.532,-0.971 2.811,-1.094 1.011,-0.096 1.438,0.026 2.212,0.452 0.524,0.29 1.571,0.105 2.27,-0.111 1.095,-0.34 2.322,-0.813 3.497,-0.717 0.465,0.992 2.07,0.621 2.927,0.969 -0.151,0.761 -1.492,0.792 -1.794,1.353 -0.372,0.69 0.646,0.711 1.104,0.694 1.133,-0.036 2.254,-0.639 3.418,-0.18 0.088,0.763 -2.768,2.059 -3.369,2.422 C 41.15,5.389 40.365,4.127 39.498,4.305 38.78,4.453 37.956,4.295 37.223,4.383 36.524,4.468 35.828,4.658 35.145,4.757 34.686,4.825 34.163,4.672 33.858,5.078 33.765,5.202 33.946,5.464 33.832,5.655 33.668,5.933 33.271,6.083 33,6.239 32.354,6.61 31.331,6.455 30.857,6.882 c 2.008,0.741 4.041,-0.09 5.847,-0.644 1.18,-0.361 2.167,-0.226 3.185,0.257 0.517,0.246 0.507,2.161 0.958,2.449 C 41.468,9.342 41.95,8.462 42.292,8.043 42.64,7.616 44.296,6.685 44.727,6 c 0,0 3.096,-4.453 6.581,-6.822 0,0 -9.076,-2.067 -24.376,0.472 0,0 -13.729,-2.959 -26.765,0.304 z"
             style="fill:#ffffff;fill-opacity:1;fill-rule:nonzero;stroke:none"
             id="path889" /></g><g
           id="g891"
           transform="translate(81.9863,22.1992)"
           style="fill:#ffffff"><path
             d="m 0,0 c 0.276,-0.596 0.519,-1.203 0.858,-1.764 0.299,-0.58 0.676,-1.115 1.028,-1.662 0.388,-0.523 0.761,-1.055 1.183,-1.552 0.402,-0.511 0.843,-0.989 1.275,-1.473 0.89,-0.947 1.828,-1.848 2.807,-2.699 0.979,-0.846 2.005,-1.664 3.049,-2.386 l 1.025,-0.708 -1.234,-0.236 -1.614,-0.311 C 7.839,-12.906 7.296,-12.963 6.754,-13.044 5.67,-13.21 4.581,-13.311 3.49,-13.386 c -1.091,-0.05 -2.183,-0.066 -3.273,-0.06 -1.09,-0.011 -2.179,0.029 -3.267,0.058 -2.175,0.091 -4.346,0.247 -6.508,0.469 -2.166,0.225 -4.311,0.497 -6.475,0.865 l 0.273,0.005 -1.684,-0.326 c -0.563,-0.102 -1.119,-0.236 -1.687,-0.309 -1.134,-0.154 -2.26,-0.363 -3.4,-0.456 l -1.707,-0.174 -1.714,-0.103 c -0.571,-0.041 -1.143,-0.064 -1.715,-0.067 l -1.717,-0.025 -1.718,0.036 c -0.572,0.006 -1.143,0.06 -1.715,0.087 -1.143,0.071 -2.286,0.175 -3.422,0.329 -1.139,0.137 -2.272,0.335 -3.399,0.561 -0.564,0.116 -1.126,0.242 -1.686,0.385 -0.565,0.143 -1.108,0.293 -1.693,0.488 l 0.391,-0.023 -1.702,-0.329 -1.704,-0.242 c -0.568,-0.084 -1.136,-0.12 -1.703,-0.182 -0.569,-0.063 -1.137,-0.104 -1.704,-0.14 -2.272,-0.166 -4.541,-0.229 -6.809,-0.247 -4.537,-0.039 -9.056,0.108 -13.588,0.389 l -2.79,0.172 2.561,1.172 2.245,1.028 c 0.73,0.378 1.474,0.729 2.192,1.129 0.714,0.405 1.441,0.789 2.131,1.233 0.706,0.42 1.388,0.875 2.063,1.339 0.344,0.222 0.665,0.476 0.996,0.717 0.331,0.241 0.661,0.482 0.975,0.744 0.644,0.504 1.262,1.037 1.864,1.585 0.595,0.554 1.179,1.122 1.717,1.724 0.276,0.297 0.532,0.607 0.786,0.916 0.242,0.307 0.501,0.646 0.684,0.935 l 0.223,0.351 0.418,-0.013 1.951,-0.069 c 0.649,-0.033 1.303,-0.019 1.956,-0.019 1.304,-0.013 2.613,0.04 3.921,0.078 2.613,0.113 5.237,0.287 7.834,0.542 l 0.12,0.012 0.131,-0.032 2.488,-0.585 1.256,-0.237 c 0.419,-0.072 0.835,-0.171 1.257,-0.221 0.842,-0.106 1.681,-0.261 2.529,-0.317 0.845,-0.091 1.69,-0.143 2.538,-0.165 0.423,-0.026 0.847,-0.02 1.269,-0.016 0.422,0.007 0.847,-0.004 1.267,0.03 0.845,0.031 1.684,0.122 2.517,0.232 0.832,0.114 1.658,0.258 2.472,0.439 0.411,0.082 0.811,0.19 1.209,0.301 0.386,0.118 0.806,0.253 1.13,0.397 l 0.242,0.107 0.228,-0.07 c 0.69,-0.214 1.367,-0.485 2.079,-0.645 0.702,-0.197 1.418,-0.343 2.138,-0.476 0.358,-0.08 0.723,-0.117 1.086,-0.173 0.363,-0.048 0.725,-0.112 1.092,-0.139 0.732,-0.077 1.466,-0.136 2.204,-0.165 0.736,-0.035 1.475,-0.044 2.214,-0.034 0.74,0.007 1.479,0.042 2.22,0.079 C -2.944,-0.42 -1.464,-0.265 0,0 m 0,0 c -2.885,-0.739 -5.866,-1.136 -8.865,-1.195 -0.75,-0.02 -1.501,-0.007 -2.254,0.024 -0.376,0.003 -0.751,0.046 -1.127,0.071 -0.376,0.033 -0.754,0.048 -1.127,0.106 -0.751,0.09 -1.501,0.194 -2.244,0.353 -0.752,0.12 -1.48,0.356 -2.221,0.537 l 0.469,0.037 c -0.453,-0.237 -0.851,-0.385 -1.28,-0.55 -0.425,-0.149 -0.851,-0.292 -1.282,-0.408 -0.859,-0.251 -1.738,-0.393 -2.615,-0.529 -0.881,-0.104 -1.763,-0.174 -2.643,-0.213 -0.442,-0.035 -0.882,-0.023 -1.323,-0.03 -0.441,-0.005 -0.882,-0.011 -1.32,0.016 -0.881,0.022 -1.758,0.078 -2.631,0.171 -0.878,0.058 -1.741,0.216 -2.611,0.327 -0.436,0.053 -0.863,0.153 -1.294,0.227 l -1.291,0.244 -2.554,0.602 0.25,-0.019 c -2.644,-0.259 -5.277,-0.433 -7.924,-0.549 -1.324,-0.038 -2.647,-0.091 -3.976,-0.079 -0.663,0.001 -1.326,-0.013 -1.992,0.02 l -1.997,0.069 0.641,0.338 c -0.263,-0.415 -0.516,-0.735 -0.789,-1.084 -0.273,-0.335 -0.548,-0.667 -0.84,-0.98 -0.573,-0.641 -1.184,-1.235 -1.807,-1.818 -0.631,-0.572 -1.275,-1.127 -1.943,-1.651 -0.327,-0.271 -0.67,-0.521 -1.012,-0.772 -0.343,-0.249 -0.677,-0.512 -1.032,-0.743 -0.698,-0.48 -1.402,-0.95 -2.129,-1.382 -0.712,-0.458 -1.46,-0.853 -2.195,-1.27 -0.738,-0.41 -1.501,-0.771 -2.251,-1.159 l -2.3,-1.053 -0.229,1.345 c 4.478,-0.277 8.988,-0.425 13.478,-0.386 2.246,0.019 4.491,0.081 6.722,0.244 0.559,0.035 1.116,0.076 1.67,0.137 0.554,0.062 1.113,0.096 1.661,0.179 l 1.648,0.233 1.622,0.313 0.204,0.039 0.187,-0.063 c 0.488,-0.163 1.036,-0.316 1.568,-0.45 0.536,-0.137 1.079,-0.259 1.623,-0.37 1.09,-0.219 2.189,-0.411 3.296,-0.543 1.105,-0.15 2.218,-0.253 3.332,-0.32 0.558,-0.028 1.115,-0.079 1.673,-0.086 l 1.676,-0.035 1.677,0.024 c 0.558,0.003 1.117,0.025 1.675,0.065 l 1.674,0.101 1.669,0.171 c 1.116,0.09 2.217,0.296 3.326,0.446 0.555,0.07 1.1,0.203 1.651,0.302 l 1.647,0.318 0.142,0.028 0.133,-0.023 c 2.096,-0.356 4.238,-0.629 6.369,-0.85 2.136,-0.218 4.277,-0.373 6.419,-0.462 1.071,-0.029 2.142,-0.069 3.213,-0.057 1.071,-0.025 2.137,0.066 3.206,0.073 1.063,0.079 2.135,0.066 3.195,0.174 0.53,0.045 1.067,0.067 1.592,0.147 l 1.586,0.201 -0.209,-0.945 c -1.062,0.838 -2.033,1.722 -2.982,2.651 -0.943,0.929 -1.838,1.905 -2.681,2.923 -0.408,0.52 -0.825,1.033 -1.2,1.578 C 2.326,-4.713 1.993,-4.139 1.64,-3.584 1.324,-3.003 0.986,-2.438 0.728,-1.83 0.43,-1.242 0.23,-0.612 0,0"
             style="fill:#ffffff;fill-opacity:1;fill-rule:nonzero;stroke:none"
             id="path893" /></g></g></g></g></svg>
